<?xml version="1.0" encoding="utf-8"?>
<svg xmlns="http://www.w3.org/2000/svg" viewBox="0 0 100 100" width="400" height="400">
  <path d="M49.990234 14.021484C30.144234 14.021484 14 30.166719 14 50.011719C14 69.856719 30.144234 86 49.990234 86C69.835234 86 85.980469 69.856719 85.980469 50.011719C85.980469 30.166719 69.836234 14.021484 49.990234 14.021484 z M 49.5 16.03125L49.5 33 A 0.50005 0.50005 0 1 0 50.5 33L50.5 16.033203C68.669334 16.3029 83.422689 30.893373 83.955078 49L57.5 49 A 0.50005 0.50005 0 1 0 57.5 50L83.980469 50C83.98047 50.003273 83.980469 50.006492 83.980469 50.009766C83.980469 59.069575 80.410974 67.30528 74.613281 73.404297L59.353516 58.146484 A 0.50005 0.50005 0 0 0 58.994141 57.994141 A 0.50005 0.50005 0 0 0 58.646484 58.853516L73.916016 74.125C67.769088 80.2241 59.31366 84 49.990234 84C31.247234 84 16 68.752766 16 50.009766C16 31.431205 30.983141 16.295541 49.5 16.03125 z M 45.423828 20.347656C45.113828 20.394656 44.808 20.457625 44.5 20.515625L44.5 20.509766C44.472 20.514766 44.444016 20.524297 44.416016 20.529297C43.676016 20.668297 42.942516 20.824625 42.228516 21.015625C42.204516 21.021625 42.186063 21.037875 42.164062 21.046875C36.546062 22.570875 31.428047 25.712969 27.498047 30.167969C27.316047 30.373969 27.336969 30.690047 27.542969 30.873047C27.749969 31.056047 28.065047 31.037078 28.248047 30.830078C32.516047 25.992078 38.232078 22.753109 44.455078 21.537109C44.827078 21.465109 45.200172 21.390984 45.576172 21.333984C45.848172 21.291984 46.036141 21.036672 45.994141 20.763672C45.951141 20.491672 45.703828 20.305656 45.423828 20.347656 z M 26.179688 32.003906C26.053062 32.022906 25.933563 32.090172 25.851562 32.201172C25.604563 32.536172 25.360906 32.875703 25.128906 33.220703C24.974906 33.448703 25.034672 33.761063 25.263672 33.914062C25.492672 34.069062 25.803031 34.008297 25.957031 33.779297C26.181031 33.445297 26.41725 33.119875 26.65625 32.796875C26.72225 32.706875 26.753906 32.603 26.753906 32.5C26.753906 32.347 26.683781 32.196656 26.550781 32.097656C26.440281 32.015656 26.306313 31.984906 26.179688 32.003906 z M 24.371094 35.003906C24.1775 34.981453 23.981656 35.073156 23.878906 35.253906C23.497906 35.926906 23.143172 36.611109 22.826172 37.287109C22.709172 37.537109 22.816406 37.836125 23.066406 37.953125C23.316406 38.070125 23.615422 37.962891 23.732422 37.712891C24.038422 37.059891 24.379047 36.397094 24.748047 35.746094C24.791047 35.668094 24.8125 35.583 24.8125 35.5C24.8125 35.326 24.722547 35.156453 24.560547 35.064453C24.500297 35.030453 24.435625 35.011391 24.371094 35.003906 z M 49.828125 36C49.577125 36 49.366266 36.074609 49.197266 36.224609C49.026266 36.372609 48.941406 36.535797 48.941406 36.716797L48.941406 37.738281C48.120406 37.806281 47.356391 37.959266 46.650391 38.197266C45.943391 38.435266 45.276391 38.780375 44.650391 39.234375C44.023391 39.688375 43.528062 40.308797 43.164062 41.091797C42.799062 41.875797 42.617188 42.779641 42.617188 43.806641C42.617188 44.649641 42.754344 45.409031 43.027344 46.082031C43.301344 46.754031 43.602594 47.290453 43.933594 47.689453C44.263594 48.089453 44.7655 48.481141 45.4375 48.869141C46.1095 49.258141 46.662703 49.532406 47.095703 49.691406L48.941406 50.375L48.941406 59.476562C48.044406 59.430563 47.238391 59.265469 46.525391 58.980469C45.811391 58.695469 45.291844 58.387641 44.964844 58.056641C44.637844 57.725641 44.316953 57.423391 44.001953 57.150391C43.685953 56.876391 43.437812 56.738281 43.257812 56.738281C42.939812 56.738281 42.651625 56.909953 42.390625 57.251953C42.129625 57.594953 42 57.9475 42 58.3125C42 59.1085 42.666953 59.927578 44.001953 60.767578C45.334953 61.608578 46.981406 62.039547 48.941406 62.060547L48.941406 63.246094C48.941406 63.438094 49.026266 63.612578 49.197266 63.767578C49.368266 63.922578 49.577125 64 49.828125 64C50.055125 64 50.261359 63.922578 50.443359 63.767578C50.625359 63.611578 50.716797 63.439047 50.716797 63.248047L50.716797 61.958984C52.551797 61.711984 54.007984 61.017047 55.083984 59.873047C56.159984 58.730047 56.699219 57.171266 56.699219 55.197266C56.699219 54.080266 56.534078 53.104484 56.205078 52.271484C55.877078 51.439484 55.390141 50.75475 54.744141 50.21875C54.097141 49.68375 53.486203 49.262125 52.908203 48.953125C52.330203 48.646125 51.600797 48.331719 50.716797 48.011719L50.716797 40.21875C51.696797 40.26475 52.607266 40.485813 53.447266 40.882812C54.287266 41.279813 54.762953 41.476562 54.876953 41.476562C55.244953 41.476562 55.543438 41.296594 55.773438 40.933594C56.003437 40.571594 56.119141 40.230109 56.119141 39.912109C56.119141 39.278109 55.560359 38.762234 54.443359 38.365234C53.326359 37.968234 52.084797 37.736969 50.716797 37.667969L50.716797 36.714844C50.716797 36.533844 50.625359 36.370656 50.443359 36.222656C50.261359 36.074656 50.056125 36 49.828125 36 z M 22.037109 40.001953C21.842531 40.016438 21.666359 40.144094 21.599609 40.339844C20.538609 43.460844 20 46.71 20 50C20 66.542 33.458 80 50 80C55.465 80 60.585906 78.519078 65.003906 75.955078C65.033906 75.945078 65.06575 75.947641 65.09375 75.931641C65.22775 75.853641 65.355281 75.765547 65.488281 75.685547C65.492281 75.683547 65.496 75.679734 65.5 75.677734C66.468 75.091734 67.413641 74.457531 68.306641 73.769531C68.524641 73.601531 68.564484 73.287359 68.396484 73.068359C68.227484 72.849359 67.911312 72.810516 67.695312 72.978516C66.963313 73.542516 66.189344 74.063594 65.402344 74.558594C60.935344 77.369594 55.656 79 50 79C34.01 79 21 65.991 21 50C21 46.82 21.520875 43.677156 22.546875 40.660156C22.633875 40.394156 22.496375 40.114391 22.234375 40.025391C22.168875 40.003391 22.101969 39.997125 22.037109 40.001953 z M 49.076172 40.265625L49.076172 47.431641C47.811172 46.974641 46.869047 46.479359 46.248047 45.943359C45.627047 45.408359 45.316406 44.60325 45.316406 43.53125C45.316406 41.60325 46.568172 40.514625 49.076172 40.265625 z M 50.580078 51.023438C51.674078 51.479438 52.516375 52.039172 53.109375 52.701172C53.702375 53.363172 53.998047 54.285656 53.998047 55.472656C53.998047 57.730656 52.859078 59.04225 50.580078 59.40625L50.580078 51.023438 z" fill="#53C6EB" />
</svg>