<?xml version="1.0" encoding="utf-8"?>
<svg xmlns="http://www.w3.org/2000/svg" viewBox="0 0 80 80" width="480" height="480">
  <path d="M39 8L39 10L6 10C4.9069372 10 4 10.906937 4 12L4 16C4 17.093063 4.9069372 18 6 18L7 18L7 53C5.9069372 53 5 53.906937 5 55L5 58C5 59.093063 5.9069372 60 7 60L39 60L39 60.433594L26.822266 69.177734 A 2 2 0 0 0 26 69 A 2 2 0 0 0 24 71 A 2 2 0 0 0 26 73 A 2 2 0 0 0 28 71 A 2 2 0 0 0 27.988281 70.804688L39 62.896484L39 66L41 66L41 62.988281L52.009766 70.8125 A 2 2 0 0 0 52 71 A 2 2 0 0 0 54 73 A 2 2 0 0 0 56 71 A 2 2 0 0 0 54 69 A 2 2 0 0 0 53.169922 69.183594L41 60.537109L41 60L73 60C74.093063 60 75 59.093063 75 58L75 55C75 53.906937 74.093063 53 73 53L73 18L74 18C75.093063 18 76 17.093063 76 16L76 12C76 10.906937 75.093063 10 74 10L41 10L41 8L39 8 z M 6 12L74 12L74 16L71 16L71 55L73 55L73 58L7 58L7 55L9 55L9 16L6 16L6 12 z M 12 16 A 1 1 0 0 0 11 17 A 1 1 0 0 0 12 18 A 1 1 0 0 0 13 17 A 1 1 0 0 0 12 16 z M 16 16 A 1 1 0 0 0 15 17 A 1 1 0 0 0 16 18 A 1 1 0 0 0 17 17 A 1 1 0 0 0 16 16 z M 20 16 A 1 1 0 0 0 19 17 A 1 1 0 0 0 20 18 A 1 1 0 0 0 21 17 A 1 1 0 0 0 20 16 z M 24 16 A 1 1 0 0 0 23 17 A 1 1 0 0 0 24 18 A 1 1 0 0 0 25 17 A 1 1 0 0 0 24 16 z M 28 16 A 1 1 0 0 0 27 17 A 1 1 0 0 0 28 18 A 1 1 0 0 0 29 17 A 1 1 0 0 0 28 16 z M 32 16 A 1 1 0 0 0 31 17 A 1 1 0 0 0 32 18 A 1 1 0 0 0 33 17 A 1 1 0 0 0 32 16 z M 36 16 A 1 1 0 0 0 35 17 A 1 1 0 0 0 36 18 A 1 1 0 0 0 37 17 A 1 1 0 0 0 36 16 z M 40 16 A 1 1 0 0 0 39 17 A 1 1 0 0 0 40 18 A 1 1 0 0 0 41 17 A 1 1 0 0 0 40 16 z M 44 16 A 1 1 0 0 0 43 17 A 1 1 0 0 0 44 18 A 1 1 0 0 0 45 17 A 1 1 0 0 0 44 16 z M 48 16 A 1 1 0 0 0 47 17 A 1 1 0 0 0 48 18 A 1 1 0 0 0 49 17 A 1 1 0 0 0 48 16 z M 52 16 A 1 1 0 0 0 51 17 A 1 1 0 0 0 52 18 A 1 1 0 0 0 53 17 A 1 1 0 0 0 52 16 z M 56 16 A 1 1 0 0 0 55 17 A 1 1 0 0 0 56 18 A 1 1 0 0 0 57 17 A 1 1 0 0 0 56 16 z M 60 16 A 1 1 0 0 0 59 17 A 1 1 0 0 0 60 18 A 1 1 0 0 0 61 17 A 1 1 0 0 0 60 16 z M 64 16 A 1 1 0 0 0 63 17 A 1 1 0 0 0 64 18 A 1 1 0 0 0 65 17 A 1 1 0 0 0 64 16 z M 68 16 A 1 1 0 0 0 67 17 A 1 1 0 0 0 68 18 A 1 1 0 0 0 69 17 A 1 1 0 0 0 68 16 z M 48 22L48 47L45 47L45 30L35 30L35 47L32 47L32 37L22 37L22 47L18 47L18 49L62 49L62 47L58 47L58 22L48 22 z M 50 24L56 24L56 28 A 1 1 0 0 0 55 29 A 1 1 0 0 0 56 30L56 34 A 1 1 0 0 0 55 35 A 1 1 0 0 0 56 36L56 40 A 1 1 0 0 0 55 41 A 1 1 0 0 0 56 42L56 46 A 1 1 0 0 0 55 47L51 47 A 1 1 0 0 0 50 46L50 42 A 1 1 0 0 0 51 41 A 1 1 0 0 0 50 40L50 36 A 1 1 0 0 0 51 35 A 1 1 0 0 0 50 34L50 30 A 1 1 0 0 0 51 29 A 1 1 0 0 0 50 28L50 24 z M 53 25 A 1 1 0 0 0 52 26 A 1 1 0 0 0 53 27 A 1 1 0 0 0 54 26 A 1 1 0 0 0 53 25 z M 53 31 A 1 1 0 0 0 52 32 A 1 1 0 0 0 53 33 A 1 1 0 0 0 54 32 A 1 1 0 0 0 53 31 z M 37 32L43 32L43 47L37 47L37 32 z M 53 37 A 1 1 0 0 0 52 38 A 1 1 0 0 0 53 39 A 1 1 0 0 0 54 38 A 1 1 0 0 0 53 37 z M 25 39L29 39 A 1 1 0 0 0 30 40L30 44 A 1 1 0 0 0 29 45 A 1 1 0 0 0 30 46L30 47L24 47L24 46 A 1 1 0 0 0 25 45 A 1 1 0 0 0 24 44L24 40 A 1 1 0 0 0 25 39 z M 27 41 A 1 1 0 0 0 26 42 A 1 1 0 0 0 27 43 A 1 1 0 0 0 28 42 A 1 1 0 0 0 27 41 z M 53 43 A 1 1 0 0 0 52 44 A 1 1 0 0 0 53 45 A 1 1 0 0 0 54 44 A 1 1 0 0 0 53 43 z M 12 53 A 1 1 0 0 0 11 54 A 1 1 0 0 0 12 55 A 1 1 0 0 0 13 54 A 1 1 0 0 0 12 53 z M 16 53 A 1 1 0 0 0 15 54 A 1 1 0 0 0 16 55 A 1 1 0 0 0 17 54 A 1 1 0 0 0 16 53 z M 20 53 A 1 1 0 0 0 19 54 A 1 1 0 0 0 20 55 A 1 1 0 0 0 21 54 A 1 1 0 0 0 20 53 z M 24 53 A 1 1 0 0 0 23 54 A 1 1 0 0 0 24 55 A 1 1 0 0 0 25 54 A 1 1 0 0 0 24 53 z M 28 53 A 1 1 0 0 0 27 54 A 1 1 0 0 0 28 55 A 1 1 0 0 0 29 54 A 1 1 0 0 0 28 53 z M 32 53 A 1 1 0 0 0 31 54 A 1 1 0 0 0 32 55 A 1 1 0 0 0 33 54 A 1 1 0 0 0 32 53 z M 36 53 A 1 1 0 0 0 35 54 A 1 1 0 0 0 36 55 A 1 1 0 0 0 37 54 A 1 1 0 0 0 36 53 z M 40 53 A 1 1 0 0 0 39 54 A 1 1 0 0 0 40 55 A 1 1 0 0 0 41 54 A 1 1 0 0 0 40 53 z M 44 53 A 1 1 0 0 0 43 54 A 1 1 0 0 0 44 55 A 1 1 0 0 0 45 54 A 1 1 0 0 0 44 53 z M 48 53 A 1 1 0 0 0 47 54 A 1 1 0 0 0 48 55 A 1 1 0 0 0 49 54 A 1 1 0 0 0 48 53 z M 52 53 A 1 1 0 0 0 51 54 A 1 1 0 0 0 52 55 A 1 1 0 0 0 53 54 A 1 1 0 0 0 52 53 z M 56 53 A 1 1 0 0 0 55 54 A 1 1 0 0 0 56 55 A 1 1 0 0 0 57 54 A 1 1 0 0 0 56 53 z M 60 53 A 1 1 0 0 0 59 54 A 1 1 0 0 0 60 55 A 1 1 0 0 0 61 54 A 1 1 0 0 0 60 53 z M 64 53 A 1 1 0 0 0 63 54 A 1 1 0 0 0 64 55 A 1 1 0 0 0 65 54 A 1 1 0 0 0 64 53 z M 68 53 A 1 1 0 0 0 67 54 A 1 1 0 0 0 68 55 A 1 1 0 0 0 69 54 A 1 1 0 0 0 68 53 z" fill="#53C6EB" />
</svg>