<?xml version="1.0" encoding="utf-8"?>
<svg xmlns="http://www.w3.org/2000/svg" viewBox="0 0 64 64" width="512" height="512">
  <path d="M11 5C10.267 5 9.5921875 5.4019219 9.2421875 6.0449219C8.8921875 6.6889219 8.9223125 7.4709375 9.3203125 8.0859375L25.539062 33.150391L8.3808594 56.826172C7.9398594 57.435172 7.87675 58.238203 8.21875 58.908203C8.55975 59.578203 9.248 60 10 60L15.039062 60C15.680063 60 16.282203 59.692828 16.658203 59.173828L30.246094 40.425781L42.320312 59.087891C42.688313 59.656891 43.322 60 44 60L53 60C53.733 60 54.407813 59.598078 54.757812 58.955078C55.107813 58.311078 55.077688 57.529062 54.679688 56.914062L37.517578 30.392578L53.619141 8.1738281C54.060141 7.5648281 54.12325 6.7617969 53.78125 6.0917969C53.44025 5.4217969 52.752 5 52 5L46.960938 5C46.319938 5 45.717797 5.3071719 45.341797 5.8261719L32.810547 23.115234L21.679688 5.9140625C21.311688 5.3440625 20.678 5 20 5L11 5 z M 11 7L20 7L31.527344 24.816406C31.821344 25.271406 32.304109 25.501953 32.787109 25.501953C33.243109 25.501953 33.701953 25.295859 34.001953 24.880859L46.960938 7L52 7L35.697266 29.494141C35.333266 29.996141 35.316344 30.669453 35.652344 31.189453L53 58L44 58L31.529297 38.726562C31.235297 38.271563 30.752531 38.042969 30.269531 38.042969C29.813531 38.042969 29.354687 38.247109 29.054688 38.662109L15.039062 58L10 58L27.359375 34.046875C27.722375 33.544875 27.740297 32.871563 27.404297 32.351562L11 7 z M 19.337891 11.927734C19.209875 11.950156 19.083047 11.997516 18.966797 12.072266C18.502797 12.372266 18.369922 12.991078 18.669922 13.455078L20.841797 16.8125C21.033797 17.1085 21.353641 17.269531 21.681641 17.269531C21.867641 17.269531 22.056609 17.217375 22.224609 17.109375C22.688609 16.809375 22.821484 16.190562 22.521484 15.726562L20.349609 12.369141C20.124609 12.021141 19.721937 11.860469 19.337891 11.927734 z M 23.679688 18.644531C23.551719 18.666953 23.426547 18.714312 23.310547 18.789062C22.846547 19.089063 22.713672 19.707875 23.013672 20.171875L27.357422 26.890625C27.549422 27.186625 27.869266 27.347656 28.197266 27.347656C28.383266 27.347656 28.572234 27.2955 28.740234 27.1875C29.204234 26.8875 29.337109 26.268687 29.037109 25.804688L24.693359 19.085938C24.468359 18.737938 24.063594 18.577266 23.679688 18.644531 z M 28.986328 45.976562C28.733328 46.015562 28.495031 46.150547 28.332031 46.373047C28.005031 46.818047 28.103828 47.444484 28.548828 47.771484L30.160156 48.953125C30.605156 49.280125 31.231594 49.183281 31.558594 48.738281C31.885594 48.293281 31.78875 47.668797 31.34375 47.341797L29.730469 46.158203C29.507469 45.994703 29.239328 45.937563 28.986328 45.976562 z M 26.03125 50.007812C25.77825 50.046813 25.540453 50.181797 25.376953 50.404297C25.049953 50.849297 25.146797 51.475734 25.591797 51.802734L27.203125 52.986328C27.648125 53.313328 28.274562 53.216484 28.601562 52.771484C28.928562 52.326484 28.831719 51.700047 28.386719 51.373047L26.773438 50.189453C26.550937 50.025953 26.28425 49.968812 26.03125 50.007812 z M 23.074219 54.041016C22.821219 54.079891 22.582922 54.215 22.419922 54.4375C22.092922 54.8825 22.189766 55.508937 22.634766 55.835938L24.248047 57.017578C24.693047 57.344578 25.319484 57.247734 25.646484 56.802734C25.973484 56.357734 25.876641 55.731297 25.431641 55.404297L23.818359 54.222656C23.595359 54.059656 23.327219 54.002141 23.074219 54.041016 z M 20.117188 58.072266C19.864187 58.111141 19.626391 58.247703 19.462891 58.470703C19.135891 58.915703 19.232734 59.540188 19.677734 59.867188L21.291016 61.050781C21.736016 61.377781 22.362453 61.280938 22.689453 60.835938C23.016453 60.390937 22.919609 59.7645 22.474609 59.4375L20.861328 58.255859C20.638828 58.092359 20.370188 58.033391 20.117188 58.072266 z" fill="#53C6EB" />
</svg>