<?xml version="1.0" encoding="utf-8"?>
<svg xmlns="http://www.w3.org/2000/svg" viewBox="0 0 80 80" width="480" height="480">
  <path d="M71 8C60.488281 8 50.410156 12.175781 42.980469 19.609375L26.851563 35.734375L17.558594 34.957031L7.382813 47.394531L15.429688 50.84375L15.800781 51.21875L13.300781 56.71875L14.09375 57.503906C12.539063 59.433594 11.695313 61.949219 11.179688 64.078125C10.597656 66.496094 10.46875 68.46875 10.46875 68.46875L10.390625 69.609375L11.53125 69.53125C11.53125 69.53125 13.503906 69.402344 15.921875 68.820313C18.050781 68.304688 20.566406 67.460938 22.496094 65.90625L23.28125 66.699219L28.78125 64.199219L29.15625 64.570313L32.605469 72.613281L45.042969 62.441406L44.265625 53.148438L60.394531 37.019531C67.824219 29.589844 72 19.511719 72 9L72 8 Z M 69.890625 10.109375C69.605469 19.683594 65.769531 28.816406 58.980469 35.605469L42.195313 52.390625L42.199219 52.40625C42.070313 52.578125 42 52.785156 42 53C42 53.269531 42.109375 53.53125 42.308594 53.71875L42.957031 61.558594L33.394531 69.386719L30.84375 63.429688L29.21875 61.800781L23.71875 64.300781L15.699219 56.28125L18.199219 50.78125L16.570313 49.15625L10.613281 46.605469L18.441406 37.042969L26.28125 37.691406C26.46875 37.890625 26.730469 38 27 38C27.214844 38 27.421875 37.929688 27.59375 37.800781L27.609375 37.804688L44.390625 21.019531C51.183594 14.230469 60.316406 10.394531 69.890625 10.109375 Z M 60 19C59.449219 19 59 19.449219 59 20C59 20.550781 59.449219 21 60 21C60.550781 21 61 20.550781 61 20C61 19.449219 60.550781 19 60 19 Z M 53 21C49.699219 21 47 23.699219 47 27C47 30.300781 49.699219 33 53 33C56.300781 33 59 30.300781 59 27C59 23.699219 56.300781 21 53 21 Z M 53 23C55.222656 23 57 24.777344 57 27C57 29.222656 55.222656 31 53 31C50.777344 31 49 29.222656 49 27C49 24.777344 50.777344 23 53 23 Z M 46 33C45.449219 33 45 33.449219 45 34C45 34.550781 45.449219 35 46 35C46.550781 35 47 34.550781 47 34C47 33.449219 46.550781 33 46 33 Z M 24 39C23.449219 39 23 39.449219 23 40C23 40.550781 23.449219 41 24 41C24.550781 41 25 40.550781 25 40C25 39.449219 24.550781 39 24 39 Z M 21 42C20.449219 42 20 42.449219 20 43C20 43.550781 20.449219 44 21 44C21.550781 44 22 43.550781 22 43C22 42.449219 21.550781 42 21 42 Z M 18 45C17.449219 45 17 45.449219 17 46C17 46.550781 17.449219 47 18 47C18.550781 47 19 46.550781 19 46C19 45.449219 18.550781 45 18 45 Z M 40 55C39.449219 55 39 55.449219 39 56C39 56.550781 39.449219 57 40 57C40.550781 57 41 56.550781 41 56C41 55.449219 40.550781 55 40 55 Z M 37 58C36.449219 58 36 58.449219 36 59C36 59.550781 36.449219 60 37 60C37.550781 60 38 59.550781 38 59C38 58.449219 37.550781 58 37 58 Z M 15.523438 58.9375L16.980469 60.390625C15.867188 62.121094 15 65 15 65C15 65 17.878906 64.132813 19.609375 63.019531L21.0625 64.476563C19.523438 65.628906 17.355469 66.417969 15.453125 66.875C13.914063 67.25 13.355469 67.261719 12.671875 67.332031C12.742188 66.644531 12.753906 66.085938 13.125 64.546875C13.585938 62.644531 14.375 60.476563 15.523438 58.9375 Z M 34 61C33.449219 61 33 61.449219 33 62C33 62.550781 33.449219 63 34 63C34.550781 63 35 62.550781 35 62C35 61.449219 34.550781 61 34 61Z" fill="#53C6EB" />
</svg>