<?xml version="1.0" encoding="utf-8"?>
<svg xmlns="http://www.w3.org/2000/svg" viewBox="0 0 80 80" width="480" height="480">
  <path d="M40 7C21.785156 7 7 21.785156 7 40C7 45.882813 8.570313 51.394531 11.269531 56.175781L5.417969 74.835938L25.109375 69.390625C29.589844 71.664063 34.636719 73 40 73C58.214844 73 73 58.214844 73 40C73 21.785156 58.214844 7 40 7 Z M 40 9C57.132813 9 71 22.867188 71 40C71 57.132813 57.132813 71 40 71C34.800781 71 29.910156 69.714844 25.609375 67.457031L25.261719 67.273438L8.425781 71.929688L13.429688 55.96875L13.207031 55.589844C10.535156 51.007813 9 45.6875 9 40C9 22.867188 22.867188 9 40 9 Z M 40 12C39.449219 12 39 12.449219 39 13C39 13.550781 39.449219 14 40 14C40.550781 14 41 13.550781 41 13C41 12.449219 40.550781 12 40 12 Z M 45.292969 12.515625C44.804688 12.503906 44.382813 12.84375 44.285156 13.324219C44.179688 13.863281 44.53125 14.390625 45.074219 14.5C45.613281 14.605469 46.140625 14.253906 46.25 13.714844C46.355469 13.171875 46.003906 12.644531 45.464844 12.535156C45.40625 12.527344 45.351563 12.519531 45.292969 12.515625 Z M 34.738281 12.519531C34.671875 12.519531 34.605469 12.523438 34.539063 12.535156C33.996094 12.644531 33.644531 13.171875 33.753906 13.714844C33.804688 13.972656 33.957031 14.203125 34.179688 14.351563C34.398438 14.496094 34.667969 14.550781 34.929688 14.5C35.472656 14.390625 35.824219 13.867188 35.714844 13.324219C35.621094 12.859375 35.214844 12.523438 34.738281 12.519531 Z M 29.675781 14.054688C29.542969 14.054688 29.410156 14.078125 29.285156 14.128906C28.773438 14.34375 28.53125 14.925781 28.746094 15.4375C28.957031 15.949219 29.539063 16.191406 30.050781 15.980469C30.5625 15.765625 30.804688 15.183594 30.59375 14.671875C30.4375 14.300781 30.078125 14.058594 29.675781 14.054688 Z M 50.355469 14.054688C49.941406 14.046875 49.566406 14.289063 49.40625 14.671875C49.195313 15.183594 49.4375 15.765625 49.949219 15.980469C50.460938 16.191406 51.042969 15.949219 51.253906 15.4375C51.46875 14.925781 51.226563 14.34375 50.714844 14.128906C50.601563 14.082031 50.476563 14.058594 50.355469 14.054688 Z M 25.011719 16.546875C24.808594 16.546875 24.609375 16.605469 24.441406 16.71875C23.984375 17.023438 23.859375 17.644531 24.167969 18.105469C24.472656 18.5625 25.09375 18.6875 25.554688 18.378906C26.015625 18.074219 26.136719 17.453125 25.832031 16.996094C25.648438 16.71875 25.339844 16.550781 25.011719 16.546875 Z M 55.015625 16.546875C54.675781 16.542969 54.355469 16.710938 54.167969 16.996094C53.859375 17.453125 53.984375 18.074219 54.441406 18.378906C54.902344 18.6875 55.523438 18.5625 55.828125 18.105469C55.976563 17.886719 56.03125 17.613281 55.980469 17.355469C55.929688 17.09375 55.777344 16.863281 55.554688 16.71875C55.394531 16.609375 55.210938 16.550781 55.015625 16.546875 Z M 20.921875 19.90625C20.652344 19.90625 20.390625 20.011719 20.203125 20.203125C19.8125 20.589844 19.8125 21.226563 20.203125 21.613281C20.589844 22.003906 21.226563 22.003906 21.613281 21.613281C22.003906 21.226563 22.003906 20.589844 21.613281 20.203125C21.429688 20.015625 21.183594 19.910156 20.921875 19.90625 Z M 59.105469 19.90625C58.835938 19.90625 58.574219 20.011719 58.386719 20.203125C57.996094 20.589844 57.996094 21.226563 58.386719 21.613281C58.773438 22.003906 59.410156 22.003906 59.796875 21.613281C60.1875 21.226563 60.1875 20.589844 59.796875 20.203125C59.613281 20.015625 59.367188 19.910156 59.105469 19.90625 Z M 62.460938 24C62.257813 23.996094 62.0625 24.054688 61.894531 24.167969C61.4375 24.472656 61.3125 25.09375 61.621094 25.550781C61.925781 26.011719 62.546875 26.136719 63.003906 25.828125C63.464844 25.519531 63.589844 24.902344 63.28125 24.441406C63.097656 24.167969 62.789063 24 62.460938 24 Z M 17.566406 24C17.226563 23.992188 16.90625 24.160156 16.71875 24.441406C16.414063 24.902344 16.535156 25.523438 16.996094 25.828125C17.457031 26.136719 18.074219 26.011719 18.382813 25.554688C18.6875 25.09375 18.566406 24.472656 18.105469 24.167969C17.945313 24.0625 17.761719 24.003906 17.566406 24 Z M 28.609375 24.636719C27.832031 24.636719 26.699219 24.929688 25.765625 25.949219C25.136719 26.636719 22.742188 28.972656 22.742188 33.203125C22.742188 37.574219 25.777344 41.449219 26.164063 41.964844C26.164063 41.964844 26.644531 42.675781 27.328125 43.574219C28.007813 44.46875 28.960938 45.648438 30.15625 46.921875C32.542969 49.46875 35.902344 52.40625 40.046875 54.195313C41.972656 55.023438 43.488281 55.523438 44.640625 55.890625C46.722656 56.554688 48.617188 56.457031 50.0625 56.238281C51.078125 56.089844 52.277344 55.566406 53.4375 54.824219C54.601563 54.082031 55.714844 53.144531 56.183594 51.839844L56.183594 51.835938C56.539063 50.832031 56.722656 49.898438 56.785156 49.144531C56.820313 48.765625 56.824219 48.433594 56.800781 48.140625C56.777344 47.84375 56.789063 47.621094 56.554688 47.234375C56.046875 46.390625 55.382813 46.304688 54.628906 45.929688C54.230469 45.730469 53.0625 45.152344 51.898438 44.59375C50.734375 44.03125 49.691406 43.523438 49.136719 43.320313C48.75 43.179688 48.308594 43 47.71875 43.066406C47.125 43.136719 46.546875 43.554688 46.1875 44.097656C45.765625 44.730469 44.207031 46.582031 43.765625 47.089844C43.640625 47.230469 43.652344 47.199219 43.667969 47.199219C43.683594 47.195313 43.5625 47.203125 43.253906 47.046875C42.730469 46.785156 41.996094 46.527344 40.941406 45.964844C39.890625 45.398438 38.570313 44.566406 37.128906 43.28125C34.921875 41.3125 33.371094 38.804688 32.9375 38.0625L32.9375 38.058594C32.8125 37.84375 32.871094 37.941406 32.863281 37.957031C32.859375 37.972656 32.933594 37.851563 33.125 37.660156L33.128906 37.65625C33.570313 37.214844 34 36.648438 34.363281 36.21875C34.839844 35.664063 35.039063 35.199219 35.289063 34.703125C35.71875 33.847656 35.480469 32.9375 35.21875 32.421875C35.226563 32.433594 35.066406 32.066406 34.878906 31.625C34.695313 31.1875 34.460938 30.613281 34.207031 30.003906C33.707031 28.789063 33.148438 27.425781 32.816406 26.628906C32.445313 25.734375 31.972656 25.144531 31.375 24.863281C30.78125 24.585938 30.253906 24.667969 30.171875 24.664063L30.167969 24.664063C29.671875 24.636719 29.132813 24.636719 28.609375 24.636719 Z M 28.609375 26.636719C29.128906 26.636719 29.644531 26.636719 30.066406 26.660156L30.074219 26.660156C30.476563 26.679688 30.511719 26.671875 30.519531 26.675781C30.53125 26.679688 30.703125 26.753906 30.972656 27.398438L30.972656 27.402344C31.296875 28.183594 31.855469 29.546875 32.359375 30.765625C32.609375 31.378906 32.847656 31.949219 33.035156 32.398438C33.222656 32.847656 33.328125 33.109375 33.4375 33.320313L33.4375 33.324219C33.574219 33.59375 33.601563 33.605469 33.5 33.804688C33.222656 34.359375 33.15625 34.554688 32.84375 34.921875C32.425781 35.410156 31.980469 35.976563 31.714844 36.246094C31.511719 36.445313 31.183594 36.734375 30.988281 37.261719C30.796875 37.785156 30.875 38.492188 31.210938 39.0625C31.695313 39.898438 33.3125 42.558594 35.796875 44.773438C37.371094 46.175781 38.832031 47.101563 40 47.726563C41.167969 48.351563 42.097656 48.707031 42.363281 48.839844C42.847656 49.078125 43.351563 49.25 43.910156 49.183594C44.46875 49.113281 44.949219 48.773438 45.273438 48.402344C45.75 47.855469 47.214844 46.160156 47.847656 45.207031C48.007813 44.96875 47.960938 45.050781 47.945313 45.054688C47.929688 45.058594 48.113281 45.074219 48.453125 45.199219C48.617188 45.257813 49.875 45.835938 51.027344 46.390625C52.179688 46.949219 53.351563 47.527344 53.738281 47.71875C54.335938 48.019531 54.6875 48.253906 54.808594 48.300781C54.816406 48.453125 54.816406 48.6875 54.792969 48.972656C54.742188 49.550781 54.59375 50.328125 54.296875 51.164063L54.296875 51.167969C54.105469 51.699219 53.316406 52.523438 52.359375 53.140625C51.402344 53.753906 50.265625 54.1875 49.765625 54.261719C48.484375 54.453125 46.945313 54.523438 45.246094 53.984375C44.109375 53.625 42.683594 53.152344 40.84375 52.359375L40.839844 52.359375C37.070313 50.730469 33.882813 47.976563 31.609375 45.550781C30.476563 44.339844 29.566406 43.214844 28.921875 42.363281C28.273438 41.511719 27.960938 41.027344 27.765625 40.765625C27.359375 40.226563 24.742188 36.601563 24.742188 33.203125C24.742188 29.671875 26.429688 28.191406 27.242188 27.296875C27.753906 26.738281 28.332031 26.636719 28.609375 26.636719 Z M 64.953125 28.667969C64.820313 28.664063 64.6875 28.691406 64.5625 28.742188C64.050781 28.953125 63.808594 29.539063 64.019531 30.046875C64.234375 30.558594 64.816406 30.800781 65.328125 30.589844C65.839844 30.378906 66.082031 29.792969 65.871094 29.28125C65.714844 28.914063 65.355469 28.667969 64.953125 28.667969 Z M 15.078125 28.667969C14.664063 28.660156 14.289063 28.902344 14.132813 29.285156C13.921875 29.796875 14.164063 30.378906 14.671875 30.59375C15.183594 30.804688 15.769531 30.5625 15.980469 30.050781C16.191406 29.539063 15.949219 28.957031 15.4375 28.746094C15.324219 28.695313 15.203125 28.671875 15.078125 28.667969 Z M 66.484375 33.734375C66.417969 33.730469 66.351563 33.738281 66.285156 33.75C65.746094 33.859375 65.394531 34.386719 65.5 34.925781C65.609375 35.46875 66.136719 35.820313 66.675781 35.714844C67.21875 35.605469 67.570313 35.078125 67.464844 34.535156C67.371094 34.070313 66.960938 33.734375 66.484375 33.734375 Z M 13.546875 33.734375C13.058594 33.722656 12.636719 34.058594 12.539063 34.535156C12.488281 34.796875 12.539063 35.070313 12.6875 35.289063C12.835938 35.511719 13.066406 35.664063 13.328125 35.714844C13.585938 35.765625 13.855469 35.710938 14.078125 35.566406C14.296875 35.417969 14.449219 35.1875 14.5 34.925781C14.609375 34.386719 14.257813 33.859375 13.71875 33.75C13.660156 33.742188 13.605469 33.734375 13.546875 33.734375 Z M 13 39C12.449219 39 12 39.449219 12 40C12 40.550781 12.449219 41 13 41C13.550781 41 14 40.550781 14 40C14 39.449219 13.550781 39 13 39 Z M 67 39C66.449219 39 66 39.449219 66 40C66 40.550781 66.449219 41 67 41C67.550781 41 68 40.550781 68 40C68 39.449219 67.550781 39 67 39 Z M 13.523438 44.265625C13.457031 44.265625 13.390625 44.273438 13.324219 44.285156C12.78125 44.394531 12.429688 44.921875 12.539063 45.464844C12.648438 46.003906 13.171875 46.355469 13.714844 46.25C14.257813 46.140625 14.609375 45.613281 14.5 45.074219C14.40625 44.605469 14 44.269531 13.523438 44.265625 Z M 66.507813 44.265625C66.019531 44.253906 65.597656 44.59375 65.5 45.074219C65.394531 45.613281 65.746094 46.140625 66.285156 46.25C66.828125 46.355469 67.355469 46.003906 67.464844 45.464844C67.570313 44.921875 67.21875 44.394531 66.675781 44.285156C66.621094 44.277344 66.566406 44.269531 66.507813 44.265625 Z M 64.96875 49.328125C64.554688 49.320313 64.179688 49.566406 64.019531 49.949219C63.808594 50.457031 64.050781 51.042969 64.5625 51.253906C65.074219 51.464844 65.65625 51.222656 65.871094 50.714844C66.082031 50.203125 65.839844 49.617188 65.328125 49.40625C65.214844 49.359375 65.089844 49.332031 64.96875 49.328125 Z M 15.0625 49.332031C14.929688 49.332031 14.796875 49.355469 14.671875 49.40625C14.429688 49.507813 14.234375 49.703125 14.132813 49.949219C14.03125 50.195313 14.03125 50.46875 14.128906 50.714844C14.34375 51.226563 14.925781 51.46875 15.4375 51.253906C15.683594 51.15625 15.878906 50.960938 15.980469 50.714844C16.082031 50.46875 16.082031 50.195313 15.980469 49.949219C15.828125 49.578125 15.464844 49.335938 15.0625 49.332031 Z M 62.46875 54C62.128906 53.992188 61.808594 54.160156 61.621094 54.441406C61.3125 54.902344 61.4375 55.519531 61.894531 55.828125C62.113281 55.976563 62.386719 56.03125 62.644531 55.976563C62.90625 55.925781 63.136719 55.773438 63.28125 55.550781C63.589844 55.09375 63.464844 54.472656 63.003906 54.167969C62.847656 54.058594 62.660156 54 62.46875 54 Z M 17 56C16.449219 56 16 56.449219 16 57C16 57.550781 16.449219 58 17 58C17.550781 58 18 57.550781 18 57C18 56.449219 17.550781 56 17 56 Z M 59.105469 58.09375C58.835938 58.089844 58.574219 58.195313 58.386719 58.386719C57.996094 58.773438 57.996094 59.410156 58.386719 59.796875C58.773438 60.1875 59.410156 60.1875 59.796875 59.796875C60.1875 59.410156 60.1875 58.773438 59.796875 58.386719C59.613281 58.199219 59.367188 58.09375 59.105469 58.09375 Z M 15 61C14.449219 61 14 61.449219 14 62C14 62.550781 14.449219 63 15 63C15.550781 63 16 62.550781 16 62C16 61.449219 15.550781 61 15 61 Z M 55.011719 61.449219C54.808594 61.445313 54.613281 61.503906 54.445313 61.613281C54.222656 61.761719 54.070313 61.992188 54.019531 62.253906C53.96875 62.511719 54.023438 62.785156 54.171875 63.003906C54.476563 63.460938 55.097656 63.585938 55.558594 63.28125C56.015625 62.972656 56.140625 62.351563 55.832031 61.890625C55.652344 61.617188 55.34375 61.449219 55.011719 61.449219 Z M 24 63C23.449219 63 23 63.449219 23 64C23 64.550781 23.449219 65 24 65C24.550781 65 25 64.550781 25 64C25 63.449219 24.550781 63 24 63 Z M 29.691406 63.941406C29.277344 63.933594 28.902344 64.179688 28.746094 64.5625C28.535156 65.070313 28.777344 65.65625 29.285156 65.867188C29.796875 66.078125 30.382813 65.835938 30.59375 65.328125C30.804688 64.816406 30.5625 64.230469 30.050781 64.019531C29.9375 63.972656 29.816406 63.945313 29.691406 63.941406 Z M 50.339844 63.941406C50.207031 63.941406 50.074219 63.96875 49.953125 64.019531C49.707031 64.121094 49.511719 64.316406 49.410156 64.558594C49.308594 64.804688 49.308594 65.082031 49.40625 65.328125C49.621094 65.835938 50.203125 66.078125 50.714844 65.867188C50.960938 65.765625 51.15625 65.570313 51.257813 65.328125C51.359375 65.082031 51.359375 64.804688 51.257813 64.5625C51.105469 64.1875 50.742188 63.945313 50.339844 63.941406 Z M 19 64C18.449219 64 18 64.449219 18 65C18 65.550781 18.449219 66 19 66C19.550781 66 20 65.550781 20 65C20 64.449219 19.550781 64 19 64 Z M 34.761719 65.480469C34.273438 65.46875 33.847656 65.808594 33.753906 66.285156C33.644531 66.828125 33.996094 67.351563 34.539063 67.460938C35.082031 67.570313 35.605469 67.21875 35.714844 66.675781C35.824219 66.132813 35.472656 65.609375 34.929688 65.5C34.875 65.488281 34.816406 65.480469 34.761719 65.480469 Z M 45.269531 65.484375C45.203125 65.480469 45.136719 65.488281 45.074219 65.5C44.53125 65.609375 44.179688 66.132813 44.285156 66.675781C44.339844 66.9375 44.492188 67.164063 44.710938 67.3125C44.933594 67.460938 45.203125 67.515625 45.464844 67.464844C45.722656 67.410156 45.953125 67.257813 46.101563 67.039063C46.246094 66.816406 46.300781 66.546875 46.25 66.285156C46.15625 65.820313 45.746094 65.484375 45.269531 65.484375 Z M 13 66C12.449219 66 12 66.449219 12 67C12 67.550781 12.449219 68 13 68C13.550781 68 14 67.550781 14 67C14 66.449219 13.550781 66 13 66 Z M 40 66C39.449219 66 39 66.449219 39 67C39 67.550781 39.449219 68 40 68C40.550781 68 41 67.550781 41 67C41 66.449219 40.550781 66 40 66Z" fill="#53C6EB" />
</svg>